# xmcd CD database file
#
# Track frame offsets:
#	187
#	18900
#	39522
#
# Disc length: 773 seconds
#
# Revision: 0
# Processed by: cddbd v1.5.1PL0 Copyright (c) Steve Scherf et al.
# Submitted via: CDex 1.51
#
DISCID=18030303
DTITLE=久松史奈 - さよならを教えて
DYEAR=1994
DGENRE=JPop
TTITLE0=さよならを教えて
TTITLE1=ONE NIGHT STAND
TTITLE2=さよならを教えて(カラオケ)
EXTD=YEAR: 1994
EXTT0=
EXTT1=
EXTT2=
PLAYORDER=
